<mxfile host="app.diagrams.net" modified="2020-11-15T20:12:16.510Z" agent="5.0 (X11)" etag="4XqyVjboKMIyxp5lzsAm" version="13.9.8" type="github">
  <diagram id="tCxo4tbXjTc1XCcc4NM_" name="Page-1">
    <mxGraphModel dx="870" dy="488" grid="1" gridSize="10" guides="1" tooltips="1" connect="1" arrows="1" fold="1" page="1" pageScale="1" pageWidth="827" pageHeight="1169" math="0" shadow="0">
      <root>
        <mxCell id="0" />
        <mxCell id="1" parent="0" />
        <mxCell id="v6RGhNJLXxdwNNuoIsZI-1" value="User" style="swimlane;fontStyle=1;align=center;verticalAlign=top;childLayout=stackLayout;horizontal=1;startSize=26;horizontalStack=0;resizeParent=1;resizeParentMax=0;resizeLast=0;collapsible=1;marginBottom=0;" parent="1" vertex="1">
          <mxGeometry x="111" y="51" width="160" height="300" as="geometry" />
        </mxCell>
        <mxCell id="v6RGhNJLXxdwNNuoIsZI-2" value="- name: string &#xa;- collection: Vector &lt;Carte*&gt;&#xa;- pioche: Pile &lt;Carte*&gt;&#xa;-carteEnjeux: Carte*&#xa;-creatureActive: Carte*&#xa;-cimetière: Vector &lt;Carte*&gt;&#xa;-victoire: int" style="text;strokeColor=none;fillColor=none;align=left;verticalAlign=top;spacingLeft=4;spacingRight=4;overflow=hidden;rotatable=0;points=[[0,0.5],[1,0.5]];portConstraint=eastwest;" parent="v6RGhNJLXxdwNNuoIsZI-1" vertex="1">
          <mxGeometry y="26" width="160" height="144" as="geometry" />
        </mxCell>
        <mxCell id="v6RGhNJLXxdwNNuoIsZI-3" value="" style="line;strokeWidth=1;fillColor=none;align=left;verticalAlign=middle;spacingTop=-1;spacingLeft=3;spacingRight=3;rotatable=0;labelPosition=right;points=[];portConstraint=eastwest;" parent="v6RGhNJLXxdwNNuoIsZI-1" vertex="1">
          <mxGeometry y="170" width="160" height="8" as="geometry" />
        </mxCell>
        <mxCell id="v6RGhNJLXxdwNNuoIsZI-4" value="+ User(string name)&#xa;+~User&#xa;+getName()&#xa;+setName()&#xa;+piochercarte(std pile)&#xa;+poserCarte(Carte)&#xa;+selectionnerDeck()&#xa;+" style="text;strokeColor=#2921FF;fillColor=none;align=left;verticalAlign=top;spacingLeft=4;spacingRight=4;overflow=hidden;rotatable=0;points=[[0,0.5],[1,0.5]];portConstraint=eastwest;" parent="v6RGhNJLXxdwNNuoIsZI-1" vertex="1">
          <mxGeometry y="178" width="160" height="122" as="geometry" />
        </mxCell>
        <mxCell id="dLkF4w349v-ChZ6yu0cC-1" value="Carte" style="swimlane;fontStyle=1;align=center;verticalAlign=top;childLayout=stackLayout;horizontal=1;startSize=26;horizontalStack=0;resizeParent=1;resizeParentMax=0;resizeLast=0;collapsible=1;marginBottom=0;" parent="1" vertex="1">
          <mxGeometry x="510" y="40" width="160" height="190" as="geometry" />
        </mxCell>
        <mxCell id="dLkF4w349v-ChZ6yu0cC-2" value="-Active: Bool&#xa;-Rareté: string&#xa;-user:User&#xa;-description: string&#xa;-cycleVie: int&#xa;-nom:string" style="text;strokeColor=none;fillColor=none;align=left;verticalAlign=top;spacingLeft=4;spacingRight=4;overflow=hidden;rotatable=0;points=[[0,0.5],[1,0.5]];portConstraint=eastwest;" parent="dLkF4w349v-ChZ6yu0cC-1" vertex="1">
          <mxGeometry y="26" width="160" height="104" as="geometry" />
        </mxCell>
        <mxCell id="xfF_8Ugbu8d-3ZP1TpGE-10" value="" style="endArrow=none;html=1;edgeStyle=orthogonalEdgeStyle;" edge="1" parent="dLkF4w349v-ChZ6yu0cC-1">
          <mxGeometry relative="1" as="geometry">
            <mxPoint y="90" as="sourcePoint" />
            <mxPoint x="-60" y="240" as="targetPoint" />
          </mxGeometry>
        </mxCell>
        <mxCell id="xfF_8Ugbu8d-3ZP1TpGE-11" value="parent" style="edgeLabel;resizable=0;html=1;align=left;verticalAlign=bottom;" connectable="0" vertex="1" parent="xfF_8Ugbu8d-3ZP1TpGE-10">
          <mxGeometry x="-1" relative="1" as="geometry">
            <mxPoint x="-40" as="offset" />
          </mxGeometry>
        </mxCell>
        <mxCell id="xfF_8Ugbu8d-3ZP1TpGE-12" value="child" style="edgeLabel;resizable=0;html=1;align=right;verticalAlign=bottom;" connectable="0" vertex="1" parent="xfF_8Ugbu8d-3ZP1TpGE-10">
          <mxGeometry x="1" relative="1" as="geometry" />
        </mxCell>
        <mxCell id="dLkF4w349v-ChZ6yu0cC-3" value="" style="line;strokeWidth=1;fillColor=none;align=left;verticalAlign=middle;spacingTop=-1;spacingLeft=3;spacingRight=3;rotatable=0;labelPosition=right;points=[];portConstraint=eastwest;" parent="dLkF4w349v-ChZ6yu0cC-1" vertex="1">
          <mxGeometry y="130" width="160" height="8" as="geometry" />
        </mxCell>
        <mxCell id="dLkF4w349v-ChZ6yu0cC-4" value="+Affcher()&#xa;+Carte()&#xa;~Carte()" style="text;strokeColor=none;fillColor=none;align=left;verticalAlign=top;spacingLeft=4;spacingRight=4;overflow=hidden;rotatable=0;points=[[0,0.5],[1,0.5]];portConstraint=eastwest;" parent="dLkF4w349v-ChZ6yu0cC-1" vertex="1">
          <mxGeometry y="138" width="160" height="52" as="geometry" />
        </mxCell>
        <mxCell id="dLkF4w349v-ChZ6yu0cC-5" value="Créature&#xa;" style="swimlane;fontStyle=1;align=center;verticalAlign=top;childLayout=stackLayout;horizontal=1;startSize=26;horizontalStack=0;resizeParent=1;resizeParentMax=0;resizeLast=0;collapsible=1;marginBottom=0;" parent="1" vertex="1">
          <mxGeometry x="334" y="280" width="160" height="180" as="geometry" />
        </mxCell>
        <mxCell id="dLkF4w349v-ChZ6yu0cC-6" value="-lp:int&#xa;--attaque: vector&lt;attaque&gt;" style="text;strokeColor=none;fillColor=none;align=left;verticalAlign=top;spacingLeft=4;spacingRight=4;overflow=hidden;rotatable=0;points=[[0,0.5],[1,0.5]];portConstraint=eastwest;" parent="dLkF4w349v-ChZ6yu0cC-5" vertex="1">
          <mxGeometry y="26" width="160" height="44" as="geometry" />
        </mxCell>
        <mxCell id="dLkF4w349v-ChZ6yu0cC-7" value="" style="line;strokeWidth=1;fillColor=none;align=left;verticalAlign=middle;spacingTop=-1;spacingLeft=3;spacingRight=3;rotatable=0;labelPosition=right;points=[];portConstraint=eastwest;" parent="dLkF4w349v-ChZ6yu0cC-5" vertex="1">
          <mxGeometry y="70" width="160" height="8" as="geometry" />
        </mxCell>
        <mxCell id="dLkF4w349v-ChZ6yu0cC-8" value="+Créature()&#xa;+~Créature&#xa;+afficherDescritpion()&#xa;+attaque()&#xa;+degat()&#xa;+choixAttaque()&#xa;" style="text;strokeColor=none;fillColor=none;align=left;verticalAlign=top;spacingLeft=4;spacingRight=4;overflow=hidden;rotatable=0;points=[[0,0.5],[1,0.5]];portConstraint=eastwest;" parent="dLkF4w349v-ChZ6yu0cC-5" vertex="1">
          <mxGeometry y="78" width="160" height="102" as="geometry" />
        </mxCell>
        <mxCell id="dLkF4w349v-ChZ6yu0cC-9" value="Spéciale" style="swimlane;fontStyle=1;align=center;verticalAlign=top;childLayout=stackLayout;horizontal=1;startSize=26;horizontalStack=0;resizeParent=1;resizeParentMax=0;resizeLast=0;collapsible=1;marginBottom=0;" parent="1" vertex="1">
          <mxGeometry x="520" y="280" width="160" height="142" as="geometry" />
        </mxCell>
        <mxCell id="dLkF4w349v-ChZ6yu0cC-11" value="" style="line;strokeWidth=1;fillColor=none;align=left;verticalAlign=middle;spacingTop=-1;spacingLeft=3;spacingRight=3;rotatable=0;labelPosition=right;points=[];portConstraint=eastwest;" parent="dLkF4w349v-ChZ6yu0cC-9" vertex="1">
          <mxGeometry y="26" width="160" height="34" as="geometry" />
        </mxCell>
        <mxCell id="dLkF4w349v-ChZ6yu0cC-12" value="+Spéciale()&#xa;+~Spéciale()&#xa;Les autres méthodes seront &#xa;crées ne fois les cartes&#xa; spéciales imaginées" style="text;strokeColor=none;fillColor=none;align=left;verticalAlign=top;spacingLeft=4;spacingRight=4;overflow=hidden;rotatable=0;points=[[0,0.5],[1,0.5]];portConstraint=eastwest;" parent="dLkF4w349v-ChZ6yu0cC-9" vertex="1">
          <mxGeometry y="60" width="160" height="82" as="geometry" />
        </mxCell>
        <mxCell id="dLkF4w349v-ChZ6yu0cC-13" value="Energie " style="swimlane;fontStyle=1;align=center;verticalAlign=top;childLayout=stackLayout;horizontal=1;startSize=26;horizontalStack=0;resizeParent=1;resizeParentMax=0;resizeLast=0;collapsible=1;marginBottom=0;" parent="1" vertex="1">
          <mxGeometry x="700" y="280" width="160" height="140" as="geometry" />
        </mxCell>
        <mxCell id="dLkF4w349v-ChZ6yu0cC-14" value="-element:string&#xa;-" style="text;strokeColor=none;fillColor=none;align=left;verticalAlign=top;spacingLeft=4;spacingRight=4;overflow=hidden;rotatable=0;points=[[0,0.5],[1,0.5]];portConstraint=eastwest;" parent="dLkF4w349v-ChZ6yu0cC-13" vertex="1">
          <mxGeometry y="26" width="160" height="24" as="geometry" />
        </mxCell>
        <mxCell id="dLkF4w349v-ChZ6yu0cC-15" value="" style="line;strokeWidth=1;fillColor=none;align=left;verticalAlign=middle;spacingTop=-1;spacingLeft=3;spacingRight=3;rotatable=0;labelPosition=right;points=[];portConstraint=eastwest;" parent="dLkF4w349v-ChZ6yu0cC-13" vertex="1">
          <mxGeometry y="50" width="160" height="8" as="geometry" />
        </mxCell>
        <mxCell id="dLkF4w349v-ChZ6yu0cC-16" value="+Energie()&#xa;+~Energie&#xa;" style="text;strokeColor=none;fillColor=none;align=left;verticalAlign=top;spacingLeft=4;spacingRight=4;overflow=hidden;rotatable=0;points=[[0,0.5],[1,0.5]];portConstraint=eastwest;" parent="dLkF4w349v-ChZ6yu0cC-13" vertex="1">
          <mxGeometry y="58" width="160" height="82" as="geometry" />
        </mxCell>
        <mxCell id="dLkF4w349v-ChZ6yu0cC-18" value="Attaque" style="swimlane;fontStyle=1;align=center;verticalAlign=top;childLayout=stackLayout;horizontal=1;startSize=26;horizontalStack=0;resizeParent=1;resizeParentMax=0;resizeLast=0;collapsible=1;marginBottom=0;" parent="1" vertex="1">
          <mxGeometry x="320" y="550" width="160" height="200" as="geometry" />
        </mxCell>
        <mxCell id="dLkF4w349v-ChZ6yu0cC-19" value="-nom: string&#xa;-struct Energie&#xa;-hp:int&#xa;" style="text;strokeColor=none;fillColor=none;align=left;verticalAlign=top;spacingLeft=4;spacingRight=4;overflow=hidden;rotatable=0;points=[[0,0.5],[1,0.5]];portConstraint=eastwest;" parent="dLkF4w349v-ChZ6yu0cC-18" vertex="1">
          <mxGeometry y="26" width="160" height="64" as="geometry" />
        </mxCell>
        <mxCell id="dLkF4w349v-ChZ6yu0cC-20" value="" style="line;strokeWidth=1;fillColor=none;align=left;verticalAlign=middle;spacingTop=-1;spacingLeft=3;spacingRight=3;rotatable=0;labelPosition=right;points=[];portConstraint=eastwest;" parent="dLkF4w349v-ChZ6yu0cC-18" vertex="1">
          <mxGeometry y="90" width="160" height="8" as="geometry" />
        </mxCell>
        <mxCell id="dLkF4w349v-ChZ6yu0cC-21" value="+Attaque()&#xa;+~Attaque()&#xa;+VerificationEnergie()&#xa;+attaque()&#xa;&#xa;" style="text;strokeColor=none;fillColor=none;align=left;verticalAlign=top;spacingLeft=4;spacingRight=4;overflow=hidden;rotatable=0;points=[[0,0.5],[1,0.5]];portConstraint=eastwest;" parent="dLkF4w349v-ChZ6yu0cC-18" vertex="1">
          <mxGeometry y="98" width="160" height="102" as="geometry" />
        </mxCell>
        <mxCell id="xfF_8Ugbu8d-3ZP1TpGE-16" value="" style="endArrow=none;html=1;edgeStyle=orthogonalEdgeStyle;entryX=0.5;entryY=0;entryDx=0;entryDy=0;" edge="1" parent="1" target="dLkF4w349v-ChZ6yu0cC-13">
          <mxGeometry relative="1" as="geometry">
            <mxPoint x="670" y="134" as="sourcePoint" />
            <mxPoint x="860" y="110" as="targetPoint" />
          </mxGeometry>
        </mxCell>
        <mxCell id="xfF_8Ugbu8d-3ZP1TpGE-17" value="parent" style="edgeLabel;resizable=0;html=1;align=left;verticalAlign=bottom;" connectable="0" vertex="1" parent="xfF_8Ugbu8d-3ZP1TpGE-16">
          <mxGeometry x="-1" relative="1" as="geometry" />
        </mxCell>
        <mxCell id="xfF_8Ugbu8d-3ZP1TpGE-18" value="child" style="edgeLabel;resizable=0;html=1;align=right;verticalAlign=bottom;" connectable="0" vertex="1" parent="xfF_8Ugbu8d-3ZP1TpGE-16">
          <mxGeometry x="1" relative="1" as="geometry" />
        </mxCell>
        <mxCell id="xfF_8Ugbu8d-3ZP1TpGE-19" value="" style="endArrow=none;html=1;edgeStyle=orthogonalEdgeStyle;entryX=0.5;entryY=0;entryDx=0;entryDy=0;" edge="1" parent="1" target="dLkF4w349v-ChZ6yu0cC-9">
          <mxGeometry relative="1" as="geometry">
            <mxPoint x="600" y="230" as="sourcePoint" />
            <mxPoint x="730" y="250" as="targetPoint" />
          </mxGeometry>
        </mxCell>
        <mxCell id="xfF_8Ugbu8d-3ZP1TpGE-20" value="parent" style="edgeLabel;resizable=0;html=1;align=left;verticalAlign=bottom;" connectable="0" vertex="1" parent="xfF_8Ugbu8d-3ZP1TpGE-19">
          <mxGeometry x="-1" relative="1" as="geometry">
            <mxPoint x="10" y="20" as="offset" />
          </mxGeometry>
        </mxCell>
        <mxCell id="xfF_8Ugbu8d-3ZP1TpGE-21" value="child" style="edgeLabel;resizable=0;html=1;align=right;verticalAlign=bottom;" connectable="0" vertex="1" parent="xfF_8Ugbu8d-3ZP1TpGE-19">
          <mxGeometry x="1" relative="1" as="geometry" />
        </mxCell>
        <mxCell id="xfF_8Ugbu8d-3ZP1TpGE-22" value="1" style="endArrow=open;html=1;endSize=12;startArrow=diamondThin;startSize=14;startFill=1;edgeStyle=orthogonalEdgeStyle;align=left;verticalAlign=bottom;" edge="1" parent="1" source="dLkF4w349v-ChZ6yu0cC-8">
          <mxGeometry x="-1" y="3" relative="1" as="geometry">
            <mxPoint x="460" y="490" as="sourcePoint" />
            <mxPoint x="410" y="550" as="targetPoint" />
            <Array as="points">
              <mxPoint x="410" y="480" />
              <mxPoint x="410" y="480" />
            </Array>
          </mxGeometry>
        </mxCell>
      </root>
    </mxGraphModel>
  </diagram>
</mxfile>
